<svg width="88" height="100" viewBox="0 0 88 100" fill="none" xmlns="http://www.w3.org/2000/svg">
<path d="M66.75 12.5V14.5H68.75H78.125C82.1962 14.5 85.5 17.8038 85.5 21.875V29.25H2V21.875C2 17.8038 5.30379 14.5 9.375 14.5H18.75H20.75V12.5V3.125C20.75 2.51082 21.2608 2 21.875 2H28.125C28.7392 2 29.25 2.51082 29.25 3.125V12.5V14.5H31.25H56.25H58.25V12.5V3.125C58.25 2.51082 58.7608 2 59.375 2H65.625C66.2392 2 66.75 2.51082 66.75 3.125V12.5ZM9.375 98C5.30379 98 2 94.6962 2 90.625V39.5H85.5V90.625C85.5 94.6962 82.1962 98 78.125 98H9.375ZM64.8438 48C62.4501 48 60.5 49.9501 60.5 52.3438V60.1562C60.5 62.5499 62.4501 64.5 64.8438 64.5H72.6562C75.0499 64.5 77 62.5499 77 60.1562V52.3438C77 49.9501 75.0499 48 72.6562 48H64.8438ZM64.8438 73C62.4501 73 60.5 74.9501 60.5 77.3438V85.1562C60.5 87.5499 62.4501 89.5 64.8438 89.5H72.6562C75.0499 89.5 77 87.5499 77 85.1562V77.3438C77 74.9501 75.0499 73 72.6562 73H64.8438ZM39.8438 48C37.4501 48 35.5 49.9501 35.5 52.3438V60.1562C35.5 62.5499 37.4501 64.5 39.8438 64.5H47.6562C50.0499 64.5 52 62.5499 52 60.1562V52.3438C52 49.9501 50.0499 48 47.6562 48H39.8438ZM39.8438 73C37.4501 73 35.5 74.9501 35.5 77.3438V85.1562C35.5 87.5499 37.4501 89.5 39.8438 89.5H47.6562C50.0499 89.5 52 87.5499 52 85.1562V77.3438C52 74.9501 50.0499 73 47.6562 73H39.8438ZM14.8438 48C12.4501 48 10.5 49.9501 10.5 52.3438V60.1562C10.5 62.5499 12.4501 64.5 14.8438 64.5H22.6562C25.0499 64.5 27 62.5499 27 60.1562V52.3438C27 49.9501 25.0499 48 22.6562 48H14.8438ZM14.8438 73C12.4501 73 10.5 74.9501 10.5 77.3438V85.1562C10.5 87.5499 12.4501 89.5 14.8438 89.5H22.6562C25.0499 89.5 27 87.5499 27 85.1562V77.3438C27 74.9501 25.0499 73 22.6562 73H14.8438Z" stroke="url(#paint0_linear_36_10)" stroke-width="4"/>
<defs>
<linearGradient id="paint0_linear_36_10" x1="87.4286" y1="-9.85914" x2="-14.6232" y2="100.867" gradientUnits="userSpaceOnUse">
<stop offset="0.09" stop-color="#6BFBCE" stop-opacity="0.9"/>
<stop offset="0.565" stop-color="#41997E" stop-opacity="0.4"/>
</linearGradient>
</defs>
</svg>
