<svg width="134" height="100" viewBox="0 0 134 100" fill="none" xmlns="http://www.w3.org/2000/svg">
<path d="M91.88 64.2473C117.396 45.7106 125.535 39.6304 131.333 35.1437M91.88 64.2473C91.8795 64.2476 91.8791 64.248 91.8786 64.2483L90.7031 62.6302M91.88 64.2473C91.8804 64.247 91.8809 64.2466 91.8814 64.2463L90.7031 62.6302M91.88 64.2473C91.15 64.7796 90.2946 65.441 89.3419 66.1776C87.0707 67.9338 84.2468 70.1174 81.2519 71.9968C76.9726 74.6822 71.8891 77.0657 66.6638 77.0261M131.333 35.1437L90.7031 62.6302M131.333 35.1437V87.5C131.333 93.2965 126.63 98 120.833 98H12.5C6.70353 98 2 93.2965 2 87.5V35.1695M131.333 35.1437L41.479 64.247M90.7031 62.6302C89.8973 63.2177 88.9947 63.9159 88.0106 64.6772C82.5384 68.9101 74.5464 75.0923 66.6667 75.026M66.6638 77.0261C66.6685 77.0261 66.6732 77.026 66.6779 77.026L66.6667 75.026M66.6638 77.0261C61.4716 77.0511 56.451 74.7116 52.194 72.0468C49.2097 70.1787 46.3876 68.0019 44.0774 66.2199C43.1137 65.4765 42.2391 64.8019 41.479 64.247M66.6638 77.0261C66.6592 77.026 66.6545 77.026 66.6499 77.026L66.6667 75.026M66.6667 75.026L41.479 64.247M41.479 64.247C41.4796 64.2474 41.4802 64.2479 41.4808 64.2483L42.6562 62.6302L41.4772 64.2457C41.4778 64.2461 41.4784 64.2466 41.479 64.247ZM41.479 64.247C15.9666 45.713 7.80115 39.6554 2 35.1695M2 35.1695V34.2708C2 34.6468 1.56128 34.8295 1.3009 34.6277M2 35.1695C1.76337 34.9866 1.53068 34.8062 1.3009 34.6277M1.3009 34.6277L1.57748 34.2708L2.52604 33.0469L1.57529 34.2708L1.29914 34.6263C1.29972 34.6268 1.30031 34.6272 1.3009 34.6277ZM66.7011 64.667L66.6667 64.6664L66.6322 64.667C65.5267 64.686 64.1525 64.3418 62.5474 63.6402C60.9616 62.9471 59.2788 61.9626 57.5916 60.841C55.3509 59.3514 53.2949 57.7608 51.4794 56.3563C50.4871 55.5887 49.5667 54.8767 48.7273 54.2671L48.7268 54.2667C16.7221 31.041 12.1275 27.4453 5.30844 22.1086C4.7689 21.6864 4.21544 21.2533 3.63337 20.7986C2.59484 19.9724 2 18.75 2 17.4479V12.5C2 6.70353 6.70353 2 12.5 2H120.833C126.63 2 131.333 6.70353 131.333 12.5V17.4479C131.333 18.765 130.727 20.0015 129.711 20.7896L129.703 20.7961C129.254 21.1486 128.821 21.4881 128.399 21.8194C121.365 27.343 117.2 30.6139 84.6066 54.2667L84.606 54.2671C83.7666 54.8767 82.8462 55.5888 81.8539 56.3564C80.0384 57.7609 77.9824 59.3514 75.7417 60.841C74.0545 61.9626 72.3717 62.9471 70.7859 63.6402C69.1809 64.3418 67.8066 64.686 66.7011 64.667ZM66.6667 66.6667C71.6735 66.753 78.5045 61.474 83.1877 57.8548C84.1556 57.1068 85.0319 56.4296 85.7812 55.8854C118.401 32.2134 122.573 28.9371 129.641 23.3875C130.061 23.0579 130.491 22.7202 130.937 22.3698L66.6667 66.6667Z" stroke="url(#paint0_linear_36_4)" stroke-width="4"/>
<defs>
<linearGradient id="paint0_linear_36_4" x1="133.224" y1="-9.85914" x2="42.5391" y2="140.074" gradientUnits="userSpaceOnUse">
<stop offset="0.09" stop-color="#6BFBCE" stop-opacity="0.9"/>
<stop offset="0.565" stop-color="#41997E" stop-opacity="0.4"/>
</linearGradient>
</defs>
</svg>
