<svg width="100" height="100" viewBox="0 0 100 100" fill="none" xmlns="http://www.w3.org/2000/svg">
<path d="M97.95 29.0445V29.05V70.95C97.95 79.6523 95.3638 86.3578 90.8358 90.8858C86.3078 95.4138 79.6023 98 70.9 98H29.05C20.3478 98 13.6428 95.4138 9.1151 90.8804C4.58707 86.3467 2 79.6287 2 70.9V29.05C2 20.3477 4.58621 13.6422 9.11421 9.11421C13.6422 4.58621 20.3477 2 29.05 2H70.95C79.6526 2 86.3574 4.58638 90.8787 9.11333C95.3995 13.6399 97.9739 20.3435 97.95 29.0445ZM79.8879 27.5366L79.9662 27.4662L80.0366 27.3879C80.6323 26.726 81.1062 25.985 81.4462 25.1692C81.7814 24.3647 82 23.4534 82 22.5C82 21.5566 81.7859 20.6544 81.4566 19.8561C81.0951 18.9271 80.592 18.2292 80.0366 17.6121L79.9271 17.4905L79.7994 17.3883C79.7436 17.3436 79.7055 17.3105 79.648 17.2604C79.6049 17.2229 79.5509 17.1759 79.4703 17.1074C79.3393 16.996 79.1281 16.8204 78.8748 16.663C78.4969 16.4144 78.0947 16.2054 77.6683 16.05C77.2504 15.8539 76.8067 15.7099 76.3074 15.6313C74.0326 15.16 71.6294 15.9422 70.0358 17.5358L69.9986 17.573L69.9634 17.6121C69.408 18.2292 68.9049 18.9271 68.5434 19.8561C68.2141 20.6544 68 21.5566 68 22.5C68 23.4534 68.2186 24.3647 68.5538 25.1692C68.8938 25.985 69.3677 26.726 69.9634 27.3879L69.9986 27.427L70.0358 27.4642C71.3747 28.8031 73.1394 29.5 75 29.5C75.9534 29.5 76.8647 29.2814 77.6692 28.9462C78.485 28.6063 79.226 28.1324 79.8879 27.5366ZM28.6 50C28.6 61.8046 38.1954 71.4 50 71.4C61.8046 71.4 71.4 61.8046 71.4 50C71.4 38.1954 61.8046 28.6 50 28.6C38.1954 28.6 28.6 38.1954 28.6 50Z" stroke="url(#paint0_linear_34_54)" stroke-width="4"/>
<defs>
<linearGradient id="paint0_linear_34_54" x1="99.8686" y1="-9.85914" x2="-0.209366" y2="114.176" gradientUnits="userSpaceOnUse">
<stop offset="0.09" stop-color="#6BFBCE" stop-opacity="0.9"/>
<stop offset="0.565" stop-color="#41997E" stop-opacity="0.4"/>
</linearGradient>
</defs>
</svg>
