<svg width="100" height="100" viewBox="0 0 100 100" fill="none" xmlns="http://www.w3.org/2000/svg">
<path d="M95.197 96.3671C94.9584 97.4003 94.3765 98.3221 93.5464 98.982C92.7163 99.6418 91.687 100.001 90.6266 100C40.6062 100 0 59.4719 0 9.37339L27.1203 0.507415C28.1008 1.00302 28.8777 1.82523 29.3169 2.83226L38.6921 24.7077M95.197 96.3671L99.8846 76.0543M95.197 96.3671L93.2483 95.9171M95.197 96.3671L27.4837 3.63186M99.8846 76.0543C100.127 74.9777 99.9857 73.8505 99.4862 72.8666C98.9868 71.8827 98.16 71.1037 97.1482 70.6635M99.8846 76.0543L97.9333 75.6157M99.8846 76.0543L97.9358 75.6045L97.9344 75.6108C98.0728 74.9896 97.991 74.3395 97.7028 73.7719C97.4146 73.204 96.9379 72.7542 96.3545 72.4993L96.3604 72.5018L97.1482 70.6635M97.1482 70.6635L75.2728 61.2884M97.1482 70.6635L96.3505 72.4976L74.4887 63.1283L75.2728 61.2884M75.2728 61.2884C74.3383 60.8901 73.2997 60.8062 72.3134 61.0493C71.3271 61.2923 70.4464 61.8492 69.804 62.6361L60.1163 74.4722C44.9124 67.3037 32.6768 55.0681 25.5083 39.8642L37.3444 30.1765C38.1329 29.5352 38.6909 28.6545 38.9341 27.6678C39.1773 26.681 39.0923 25.6418 38.6921 24.7077M75.2728 61.2884L74.485 63.1267L74.486 63.1271C73.9509 62.8998 73.3565 62.852 72.792 62.9912C72.2265 63.1305 71.7215 63.4498 71.3532 63.9009L71.3517 63.9028L61.664 75.739L60.6753 76.9469L59.2634 76.2812C43.6395 68.9147 31.0658 56.341 23.6993 40.7171L23.0336 39.3052L24.2415 38.3165L36.0777 28.6288L36.0825 28.6249C36.5337 28.2579 36.853 27.7539 36.9922 27.1892C37.1313 26.6246 37.0827 26.03 36.8538 25.4955L38.6921 24.7077M38.6921 24.7077L36.8537 25.4952L27.4837 3.63186M27.4837 3.63186C27.483 3.63022 27.4823 3.62858 27.4816 3.62694C27.2281 3.04897 26.7815 2.57711 26.2181 2.29236C25.654 2.00723 25.0082 1.92756 24.3917 2.06701C24.3908 2.06722 24.3899 2.06742 24.389 2.06763L4.08288 6.75367C4.08278 6.75369 4.08269 6.75372 4.0826 6.75374C3.49051 6.89053 2.96226 7.22394 2.58403 7.69957C2.20574 8.17528 1.99986 8.76516 2 9.37295L2 9.37339C2 58.3662 41.7096 98 90.6266 98H90.6279C91.2359 98.0004 91.826 97.7946 92.3019 97.4163C92.7778 97.0381 93.1114 96.5097 93.2482 95.9174C93.2482 95.9173 93.2483 95.9172 93.2483 95.9171M27.4837 3.63186L97.9333 75.6157M93.2483 95.9171L97.9333 75.6157M93.2483 95.9171L97.9333 75.6157" stroke="url(#paint0_linear_36_7)" stroke-width="4"/>
<defs>
<linearGradient id="paint0_linear_36_7" x1="99.9184" y1="-9.85914" x2="-0.148969" y2="114.224" gradientUnits="userSpaceOnUse">
<stop offset="0.09" stop-color="#6BFBCE" stop-opacity="0.9"/>
<stop offset="0.565" stop-color="#41997E" stop-opacity="0.4"/>
</linearGradient>
</defs>
</svg>
