<svg width="500" height="500" viewBox="0 0 500 500" fill="none" xmlns="http://www.w3.org/2000/svg">
<g clip-path="url(#clip0_27_2)">
<path d="M223.1 57.8L8.9 139.25V197.75L223.1 279.2V222.95L30.05 152.75V184.25L223.1 114.05V57.8ZM278.285 57.8V114.05L471.335 184.25V152.75L278.285 222.95V279.2L492.485 197.75V139.25L278.285 57.8Z" fill="#41997E"/>
<path d="M4.98 388V346H24.06C28.62 346 32.64 346.88 36.12 348.64C39.6 350.36 42.32 352.78 44.28 355.9C46.24 359.02 47.22 362.72 47.22 367C47.22 371.24 46.24 374.94 44.28 378.1C42.32 381.22 39.6 383.66 36.12 385.42C32.64 387.14 28.62 388 24.06 388H4.98ZM14.7 380.02H23.58C26.38 380.02 28.8 379.5 30.84 378.46C32.92 377.38 34.52 375.86 35.64 373.9C36.8 371.94 37.38 369.64 37.38 367C37.38 364.32 36.8 362.02 35.64 360.1C34.52 358.14 32.92 356.64 30.84 355.6C28.8 354.52 26.38 353.98 23.58 353.98H14.7V380.02ZM54.5503 388V346H64.2703V388H54.5503ZM94.5178 388.72C91.1978 388.72 88.1378 388.2 85.3378 387.16C82.5778 386.08 80.1578 384.56 78.0778 382.6C76.0378 380.64 74.4378 378.34 73.2778 375.7C72.1578 373.06 71.5978 370.16 71.5978 367C71.5978 363.84 72.1578 360.94 73.2778 358.3C74.4378 355.66 76.0578 353.36 78.1378 351.4C80.2178 349.44 82.6578 347.94 85.4578 346.9C88.2578 345.82 91.3378 345.28 94.6978 345.28C98.4178 345.28 101.758 345.9 104.718 347.14C107.718 348.38 110.238 350.18 112.278 352.54L106.038 358.3C104.518 356.7 102.858 355.52 101.058 354.76C99.2578 353.96 97.2978 353.56 95.1778 353.56C93.1378 353.56 91.2778 353.88 89.5978 354.52C87.9178 355.16 86.4578 356.08 85.2178 357.28C84.0178 358.48 83.0778 359.9 82.3978 361.54C81.7578 363.18 81.4378 365 81.4378 367C81.4378 368.96 81.7578 370.76 82.3978 372.4C83.0778 374.04 84.0178 375.48 85.2178 376.72C86.4578 377.92 87.8978 378.84 89.5378 379.48C91.2178 380.12 93.0578 380.44 95.0578 380.44C96.9778 380.44 98.8378 380.14 100.638 379.54C102.478 378.9 104.258 377.84 105.978 376.36L111.498 383.38C109.218 385.1 106.558 386.42 103.518 387.34C100.518 388.26 97.5178 388.72 94.5178 388.72ZM102.618 382.12V366.34H111.498V383.38L102.618 382.12ZM120.527 388V346H130.247V388H120.527ZM148.914 388V353.92H135.474V346H172.074V353.92H158.634V388H148.914ZM169.675 388L188.395 346H197.995L216.775 388H206.575L191.215 350.92H195.055L179.635 388H169.675ZM179.035 379L181.615 371.62H203.215L205.855 379H179.035ZM221.132 388V346H230.852V380.08H251.912V388H221.132ZM283.335 364.9H303.495V372.7H283.335V364.9ZM284.055 388H274.335V346H306.075V353.8H284.055V388ZM312.656 388V346H330.836C334.596 346 337.836 346.62 340.556 347.86C343.276 349.06 345.376 350.8 346.856 353.08C348.336 355.36 349.076 358.08 349.076 361.24C349.076 364.36 348.336 367.06 346.856 369.34C345.376 371.58 343.276 373.3 340.556 374.5C337.836 375.7 334.596 376.3 330.836 376.3H318.056L322.376 372.04V388H312.656ZM339.356 388L328.856 372.76H339.236L349.856 388H339.356ZM322.376 373.12L318.056 368.56H330.296C333.296 368.56 335.536 367.92 337.016 366.64C338.496 365.32 339.236 363.52 339.236 361.24C339.236 358.92 338.496 357.12 337.016 355.84C335.536 354.56 333.296 353.92 330.296 353.92H318.056L322.376 349.3V373.12ZM377.177 388.72C373.857 388.72 370.777 388.18 367.937 387.1C365.137 386.02 362.697 384.5 360.617 382.54C358.577 380.58 356.977 378.28 355.817 375.64C354.697 373 354.137 370.12 354.137 367C354.137 363.88 354.697 361 355.817 358.36C356.977 355.72 358.597 353.42 360.677 351.46C362.757 349.5 365.197 347.98 367.997 346.9C370.797 345.82 373.837 345.28 377.117 345.28C380.437 345.28 383.477 345.82 386.237 346.9C389.037 347.98 391.457 349.5 393.497 351.46C395.577 353.42 397.197 355.72 398.357 358.36C399.517 360.96 400.097 363.84 400.097 367C400.097 370.12 399.517 373.02 398.357 375.7C397.197 378.34 395.577 380.64 393.497 382.6C391.457 384.52 389.037 386.02 386.237 387.1C383.477 388.18 380.457 388.72 377.177 388.72ZM377.117 380.44C378.997 380.44 380.717 380.12 382.277 379.48C383.877 378.84 385.277 377.92 386.477 376.72C387.677 375.52 388.597 374.1 389.237 372.46C389.917 370.82 390.257 369 390.257 367C390.257 365 389.917 363.18 389.237 361.54C388.597 359.9 387.677 358.48 386.477 357.28C385.317 356.08 383.937 355.16 382.337 354.52C380.737 353.88 378.997 353.56 377.117 353.56C375.237 353.56 373.497 353.88 371.897 354.52C370.337 355.16 368.957 356.08 367.757 357.28C366.557 358.48 365.617 359.9 364.937 361.54C364.297 363.18 363.977 365 363.977 367C363.977 368.96 364.297 370.78 364.937 372.46C365.617 374.1 366.537 375.52 367.697 376.72C368.897 377.92 370.297 378.84 371.897 379.48C373.497 380.12 375.237 380.44 377.117 380.44ZM407.402 388V346H415.442L440.222 376.24H436.322V346H445.922V388H437.942L413.102 357.76H417.002V388H407.402ZM464.559 388V353.92H451.119V346H487.719V353.92H474.279V388H464.559Z" fill="#F0FFFA"/>
</g>
<defs>
<clipPath id="clip0_27_2">
<rect width="500" height="500" fill="white"/>
</clipPath>
</defs>
</svg>
